<?xml version="1.0" encoding="UTF-8" standalone="no"?>
<!-- Created with Inkscape (http://www.inkscape.org/) -->

<svg
   width="210mm"
   height="297mm"
   viewBox="0 0 210 297"
   version="1.1"
   id="svg10653"
   xml:space="preserve"
   inkscape:version="1.2.2 (732a01da63, 2022-12-09)"
   sodipodi:docname="exitButton.svg"
   inkscape:export-filename="exitButtonInactive.png"
   inkscape:export-xdpi="25.400051"
   inkscape:export-ydpi="25.400051"
   xmlns:inkscape="http://www.inkscape.org/namespaces/inkscape"
   xmlns:sodipodi="http://sodipodi.sourceforge.net/DTD/sodipodi-0.dtd"
   xmlns="http://www.w3.org/2000/svg"
   xmlns:svg="http://www.w3.org/2000/svg"><sodipodi:namedview
     id="namedview10655"
     pagecolor="#ffffff"
     bordercolor="#999999"
     borderopacity="1"
     inkscape:showpageshadow="0"
     inkscape:pageopacity="0"
     inkscape:pagecheckerboard="0"
     inkscape:deskcolor="#d1d1d1"
     inkscape:document-units="mm"
     showgrid="false"
     inkscape:zoom="2.0510461"
     inkscape:cx="174.78886"
     inkscape:cy="122.62035"
     inkscape:window-width="1920"
     inkscape:window-height="1001"
     inkscape:window-x="-9"
     inkscape:window-y="-9"
     inkscape:window-maximized="1"
     inkscape:current-layer="layer1" /><defs
     id="defs10650"><clipPath
       clipPathUnits="userSpaceOnUse"
       id="clipPath3184"><rect
         style="opacity:0.516129;fill:#cee4e4;stroke-width:0.264583"
         id="rect3186"
         width="49.999901"
         height="50"
         x="0"
         y="0"
         rx="0"
         ry="0" /></clipPath></defs><g
     inkscape:label="Layer 1"
     inkscape:groupmode="layer"
     id="layer1"><rect
       style="fill:#711008;fill-opacity:1;stroke-width:0.264583"
       id="rect344"
       width="50"
       height="50"
       x="0"
       y="0"
       clip-path="url(#clipPath3184)"
       ry="5.564189" /><path
       style="fill:#220907;stroke-width:0.0753186;fill-opacity:1"
       d="M 15.645821,43.872488 C 11.322486,42.96246 7.6450626,42.162326 7.4737686,42.094411 c -0.178171,-0.07064 -0.421928,-0.25916 -0.569636,-0.440548 -0.142006,-0.174386 -0.290936,-0.440958 -0.330954,-0.592383 -0.047,-0.177835 -0.07291,-6.169392 -0.07317,-16.921839 -3.68e-4,-15.097073 0.01059,-16.6804676 0.117807,-17.0112116 0.06502,-0.200579 0.222576,-0.481001 0.350127,-0.623161 0.148946,-0.166004 0.374238,-0.302899 0.629753,-0.382659 0.358939,-0.112044 1.6411364,-0.124022 13.1120854,-0.122492 12.6244,0.0017 12.71657,0.0028 13.04351,0.158686 0.18109,0.08634 0.3924,0.215891 0.46956,0.287881 0.0772,0.07199 0.21793,0.304635 0.31282,0.516991 l 0.17253,0.386101 7.4e-4,5.2551236 7.3e-4,5.255122 -0.18609,0.392533 c -0.10916,0.230249 -0.29898,0.474319 -0.45915,0.590356 -0.15018,0.108802 -0.41172,0.230226 -0.5812,0.269831 -0.18534,0.04331 -0.44834,0.04448 -0.65988,0.0029 -0.19743,-0.03877 -0.4651,-0.164811 -0.610149,-0.287309 -0.142163,-0.120028 -0.341097,-0.3715 -0.44211,-0.558823 l -0.183659,-0.340589 -0.02181,-4.305031 -0.02181,-4.305032 -6.332798,0.0042 -6.332798,0.0042 2.791618,0.88693 c 2.142274,0.680626 2.850224,0.936552 3.04357,1.100261 0.138574,0.117331 0.320396,0.350474 0.40405,0.518096 0.151909,0.304386 0.152122,0.321487 0.171079,13.721792 l 0.01898,13.417026 h 3.118685 3.118686 l 0.02127,-4.307228 0.02127,-4.307228 0.187673,-0.383198 c 0.111575,-0.227818 0.311602,-0.474753 0.493305,-0.608988 0.221298,-0.16349 0.418348,-0.235616 0.714158,-0.261401 0.27727,-0.02417 0.51262,0.0062 0.73254,0.09446 0.17821,0.07154 0.43962,0.264576 0.58092,0.428974 0.14129,0.164397 0.29198,0.431672 0.33484,0.593945 0.0514,0.194388 0.0779,2.046898 0.0779,5.430191 0,3.346406 -0.0268,5.236754 -0.0771,5.426836 -0.0424,0.160428 -0.18241,0.417814 -0.31118,0.571969 -0.12876,0.154156 -0.36663,0.343563 -0.5286,0.420906 -0.27342,0.130564 -0.58744,0.140744 -4.390079,0.142318 l -4.095599,0.0017 v 0.936989 c 0,0.517625 -0.04044,1.079244 -0.09035,1.25483 -0.05098,0.179328 -0.219054,0.453127 -0.385684,0.628278 -0.16663,0.175151 -0.42711,0.351825 -0.597714,0.405407 -0.166307,0.05223 -0.397718,0.09314 -0.514245,0.0909 -0.116527,-0.0022 -3.749142,-0.748632 -8.072478,-1.658658 z m 21.68528,-13.275451 c -0.15419,-0.0578 -0.35201,-0.169214 -0.43958,-0.247577 -0.0876,-0.07836 -0.20285,-0.194601 -0.25617,-0.258308 -0.0533,-0.06371 -0.14886,-0.237452 -0.21233,-0.386101 -0.0635,-0.148649 -0.11406,-0.448846 -0.1124,-0.667103 0.002,-0.218256 0.0586,-0.513623 0.1266,-0.656372 0.068,-0.142748 0.62406,-0.789466 1.23574,-1.437151 l 1.11213,-1.177609 -4.48039,-4.64e-4 c -2.931972,-3.09e-4 -4.577402,-0.02874 -4.761085,-0.08236 -0.154379,-0.04506 -0.408651,-0.203448 -0.565051,-0.35197 -0.156399,-0.148523 -0.340047,-0.423305 -0.408105,-0.610626 -0.08399,-0.23116 -0.112858,-0.478548 -0.08986,-0.77 0.02463,-0.312239 0.0932,-0.518233 0.251273,-0.754896 0.119568,-0.179014 0.364692,-0.412353 0.54472,-0.51853 l 0.327325,-0.193051 4.546443,-0.02264 4.54644,-0.02264 -1.07567,-1.14651 c -0.66214,-0.705748 -1.12139,-1.261087 -1.1946,-1.444549 -0.0654,-0.163922 -0.11757,-0.476188 -0.11592,-0.693926 0.002,-0.237496 0.0614,-0.515552 0.14889,-0.694983 0.0802,-0.164502 0.22349,-0.373216 0.31833,-0.463809 0.0948,-0.09059 0.28356,-0.223789 0.41936,-0.295994 0.13581,-0.0722 0.4168,-0.132703 0.62444,-0.134441 0.20764,-0.0017 0.50976,0.05484 0.67138,0.125721 0.21018,0.09218 1.00811,0.881016 2.80215,2.770204 1.37956,1.452727 2.56196,2.753658 2.62756,2.890958 0.0656,0.137299 0.13973,0.4066 0.16475,0.598447 0.0317,0.24295 0.006,0.460135 -0.0839,0.715618 -0.10884,0.308538 -0.52764,0.788271 -2.63631,3.019948 -1.94157,2.054816 -2.58975,2.694626 -2.87424,2.837092 -0.20202,0.101172 -0.48302,0.182764 -0.62444,0.181314 -0.14141,-0.0015 -0.38328,-0.04993 -0.53747,-0.107734 z"
       id="path10868" /></g></svg>
